<svg width="20" height="20" viewBox="0 0 20 20" fill="none" xmlns="http://www.w3.org/2000/svg">
<g clip-path="url(#clip0_74_1167)">
<path d="M12.9883 5.8333L4.69666 14.125C4.54486 14.2821 4.46087 14.4926 4.46277 14.7111C4.46467 14.9296 4.55231 15.1386 4.70681 15.2932C4.86132 15.4477 5.07033 15.5353 5.28883 15.5372C5.50733 15.5391 5.71783 15.4551 5.87499 15.3033L14.1667 7.01164L14.1667 11.6666C14.1667 11.8877 14.2545 12.0996 14.4107 12.2559C14.567 12.4122 14.779 12.5 15 12.5C15.221 12.5 15.433 12.4122 15.5893 12.2559C15.7455 12.0996 15.8333 11.8877 15.8333 11.6666L15.8333 4.99997C15.8333 4.77896 15.7455 4.56699 15.5892 4.41071C15.433 4.25443 15.221 4.16664 15 4.16664L8.33333 4.16664C8.11231 4.16664 7.90035 4.25443 7.74407 4.41071C7.58779 4.567 7.49999 4.77896 7.49999 4.99997C7.49999 5.22099 7.58779 5.43295 7.74407 5.58923C7.90035 5.74551 8.11231 5.83331 8.33333 5.83331L12.9883 5.8333Z" fill="currentColor"/>
</g>
<defs>
<clipPath id="clip0_74_1167">
<rect width="20" height="20" fill="currentColor" transform="translate(20 20) rotate(180)"/>
</clipPath>
</defs>
</svg>
