<svg width="24" height="24" viewBox="0 0 24 24" fill="none" xmlns="http://www.w3.org/2000/svg">
<g clip-path="url(#clip0_55_999)">
<path d="M11.5 3C11.7549 3.00028 12 3.09788 12.1854 3.27285C12.3707 3.44782 12.4822 3.68695 12.4972 3.94139C12.5121 4.19584 12.4293 4.44638 12.2657 4.64183C12.1021 4.83729 11.8701 4.9629 11.617 4.993L11.5 5H5.99999V19H16V12.5C16.0003 12.2451 16.0979 12 16.2728 11.8146C16.4478 11.6293 16.6869 11.5178 16.9414 11.5028C17.1958 11.4879 17.4464 11.5707 17.6418 11.7343C17.8373 11.8979 17.9629 12.1299 17.993 12.383L18 12.5V19H20C20.2549 19.0003 20.5 19.0979 20.6854 19.2728C20.8707 19.4478 20.9822 19.687 20.9972 19.9414C21.0121 20.1958 20.9293 20.4464 20.7657 20.6418C20.6021 20.8373 20.3701 20.9629 20.117 20.993L20 21H3.99999C3.74511 20.9997 3.49996 20.9021 3.31462 20.7272C3.12929 20.5522 3.01776 20.313 3.00282 20.0586C2.98788 19.8042 3.07067 19.5536 3.23426 19.3582C3.39785 19.1627 3.62989 19.0371 3.88299 19.007L3.99999 19V5C3.99983 4.49542 4.1904 4.00943 4.53349 3.63945C4.87658 3.26947 5.34684 3.04284 5.84999 3.005L5.99999 3H11.5ZM13.5 11C13.697 11 13.892 11.0388 14.074 11.1142C14.256 11.1896 14.4214 11.3001 14.5607 11.4393C14.6999 11.5786 14.8104 11.744 14.8858 11.926C14.9612 12.108 15 12.303 15 12.5C15 12.697 14.9612 12.892 14.8858 13.074C14.8104 13.256 14.6999 13.4214 14.5607 13.5607C14.4214 13.6999 14.256 13.8104 14.074 13.8858C13.892 13.9612 13.697 14 13.5 14C13.1022 14 12.7206 13.842 12.4393 13.5607C12.158 13.2794 12 12.8978 12 12.5C12 12.1022 12.158 11.7206 12.4393 11.4393C12.7206 11.158 13.1022 11 13.5 11ZM18.587 4.172L20.707 6.292C20.8942 6.47949 20.9993 6.73358 20.9993 6.9985C20.9993 7.26342 20.8942 7.51751 20.707 7.705L18.587 9.828C18.3985 10.0103 18.146 10.1113 17.8838 10.1092C17.6216 10.1071 17.3707 10.0021 17.1852 9.81682C16.9996 9.63154 16.8943 9.3808 16.8918 9.1186C16.8893 8.85641 16.99 8.60373 17.172 8.415L17.588 7.998H14.38C14.1148 7.998 13.8604 7.89264 13.6729 7.70511C13.4853 7.51757 13.38 7.26322 13.38 6.998C13.38 6.73278 13.4853 6.47843 13.6729 6.29089C13.8604 6.10336 14.1148 5.998 14.38 5.998H17.585L17.173 5.586C16.9908 5.3974 16.89 5.1448 16.8923 4.8826C16.8946 4.6204 16.9998 4.36959 17.1852 4.18418C17.3706 3.99877 17.6214 3.8936 17.8836 3.89133C18.1458 3.88905 18.3984 3.98984 18.587 4.172Z" fill="white"/>
</g>
<defs>
<clipPath id="clip0_55_999">
<rect width="24" height="24" fill="white"/>
</clipPath>
</defs>
</svg>
